<?xml version="1.0" encoding="UTF-8"?>
<!DOCTYPE svg PUBLIC "-//W3C//DTD SVG 1.1//EN" "http://www.w3.org/Graphics/SVG/1.1/DTD/svg11.dtd">
<svg xmlns="http://www.w3.org/2000/svg" version="1.1" width="62px" height="45px" style="shape-rendering:geometricPrecision; text-rendering:geometricPrecision; image-rendering:optimizeQuality; fill-rule:evenodd; clip-rule:evenodd" xmlns:xlink="http://www.w3.org/1999/xlink">
<g><path style="opacity:0.976" fill="#08aaff" d="M 8.5,-0.5 C 23.5,-0.5 38.5,-0.5 53.5,-0.5C 56.6266,0.26671 59.2933,1.93338 61.5,4.5C 61.5,15.8333 61.5,27.1667 61.5,38.5C 60.6364,39.6883 59.6364,40.8549 58.5,42C 54.3908,42.9443 50.3908,43.7776 46.5,44.5C 36.1667,44.5 25.8333,44.5 15.5,44.5C 11.6092,43.7776 7.60921,42.9443 3.5,42C 1.7518,39.9871 0.418466,37.8205 -0.5,35.5C -0.5,26.1667 -0.5,16.8333 -0.5,7.5C 1.26568,3.39867 4.26568,0.732004 8.5,-0.5 Z"/></g>
<g><path style="opacity:1" fill="#f0f9ff" d="M 10.5,12.5 C 11.4959,12.4142 12.3292,12.7476 13,13.5C 14.3333,16.8333 15.6667,20.1667 17,23.5C 20.6667,8.83333 24.3333,8.83333 28,23.5C 29.3333,20.1667 30.6667,16.8333 32,13.5C 33.0113,12.6634 34.1779,12.33 35.5,12.5C 33.7738,18.1791 31.9405,23.8458 30,29.5C 28.8173,30.731 27.6507,30.731 26.5,29.5C 25.3598,26.0773 24.0265,22.744 22.5,19.5C 20.3714,22.8865 19.0381,26.5532 18.5,30.5C 17.1779,30.67 16.0113,30.3366 15,29.5C 13.4618,24.3848 11.6285,19.3848 9.5,14.5C 9.86273,13.8165 10.1961,13.1499 10.5,12.5 Z"/></g>
<g><path style="opacity:1" fill="#fefeff" d="M 50.5,15.5 C 48.8333,15.5 47.1667,15.5 45.5,15.5C 45.5,20.1667 45.5,24.8333 45.5,29.5C 44.209,29.7373 43.209,29.404 42.5,28.5C 42.5,24.1667 42.5,19.8333 42.5,15.5C 40.8333,15.5 39.1667,15.5 37.5,15.5C 37.5,14.5 37.5,13.5 37.5,12.5C 41.8461,12.3343 46.1794,12.501 50.5,13C 51.7736,13.9772 51.7736,14.8106 50.5,15.5 Z"/></g>
<g><path style="opacity:1" fill="#51c3ff" d="M 37.5,15.5 C 39.1667,15.5 40.8333,15.5 42.5,15.5C 42.5,19.8333 42.5,24.1667 42.5,28.5C 41.5166,24.7016 41.1832,20.7016 41.5,16.5C 39.901,16.7678 38.5676,16.4345 37.5,15.5 Z"/></g>
<g><path style="opacity:1" fill="#98dbff" d="M 50.5,15.5 C 49.4324,16.4345 48.099,16.7678 46.5,16.5C 46.8182,21.0323 46.4849,25.3656 45.5,29.5C 45.5,24.8333 45.5,20.1667 45.5,15.5C 47.1667,15.5 48.8333,15.5 50.5,15.5 Z"/></g>
</svg>
